{"glyphs":{"0":{"ha":821,"x_min":149,"x_max":833,"o":"m 833 419 q 758 101 833 204 q 450 -17 668 -24 q 190 125 253 -11 q 149 453 149 215 q 257 775 149 639 q 496 904 361 904 q 729 771 631 904 q 833 419 833 631 m 663 444 q 603 639 656 560 q 497 711 553 713 q 399 657 442 701 q 326 444 328 583 q 353 238 325 297 q 469 165 385 168 q 614 242 558 163 q 663 444 669 322 z "},"1":{"ha":410,"x_min":158,"x_max":424,"o":"m 424 936 l 394 -14 l 188 -19 l 158 824 l 424 936 z "},"2":{"ha":792,"x_min":157,"x_max":810,"o":"m 749 164 l 713 -72 l 157 0 q 313 322 190 178 q 522 517 364 382 q 628 658 628 606 q 579 746 628 700 q 513 778 546 778 q 350 513 413 778 l 157 585 q 302 840 185 724 q 543 957 419 957 q 683 904 621 957 q 810 650 810 797 q 681 435 810 503 q 451 208 524 353 l 749 164 z "},"3":{"ha":694,"x_min":60,"x_max":694,"o":"m 694 206 q 481 -50 694 19 q 265 -82 390 -79 l 269 104 q 317 99 292 99 q 447 200 428 99 q 449 219 449 210 q 228 350 449 328 l 253 524 q 396 567 339 515 q 446 674 446 613 q 413 744 446 721 q 381 756 397 756 q 264 629 321 756 l 60 700 q 75 732 63 711 q 179 876 104 782 q 374 958 244 958 q 565 903 479 958 q 686 744 660 843 q 694 683 694 714 q 560 454 694 557 q 694 206 694 413 z "},"4":{"ha":707,"x_min":113,"x_max":675,"o":"m 117 968 l 329 983 q 340 563 326 697 q 390 476 349 476 q 434 503 413 476 q 457 564 456 531 q 438 894 461 636 l 632 897 l 675 -14 l 457 -54 l 479 321 q 333 267 397 267 q 151 475 206 267 q 113 835 113 617 q 117 968 113 908 z "},"5":{"ha":672,"x_min":18,"x_max":701,"o":"m 701 829 l 657 572 l 224 701 q 210 643 210 674 q 382 493 210 532 l 431 482 q 553 383 510 464 q 593 208 593 310 q 540 3 593 89 q 386 -101 483 -94 q 228 -72 297 -103 q 18 213 61 -1 l 253 254 q 340 79 240 85 q 410 163 410 85 q 374 257 410 213 q 253 329 331 307 q 65 474 124 367 q 25 663 21 556 q 42 913 31 768 l 701 829 z "},"6":{"ha":754,"x_min":153,"x_max":788,"o":"m 779 531 l 551 510 q 567 625 567 571 q 467 763 567 760 q 354 543 354 765 q 361 429 354 485 l 375 368 q 582 460 490 460 q 772 297 713 460 q 788 186 788 244 q 571 -78 788 -31 q 471 -89 518 -89 q 153 440 153 -89 q 154 529 153 481 q 157 592 156 561 q 218 842 160 736 q 476 994 303 994 q 732 833 656 994 q 781 582 781 731 q 779 531 781 553 m 606 165 q 524 294 604 299 q 450 261 486 292 q 410 186 410 228 q 413 167 410 176 q 483 76 433 82 q 554 86 521 72 q 606 165 607 107 z "},"7":{"ha":792,"x_min":157,"x_max":800,"o":"m 800 692 q 443 149 542 457 q 396 -114 401 19 l 157 -49 q 400 482 189 206 q 604 708 488 597 q 167 644 386 678 l 157 904 l 758 921 l 800 692 z "},"8":{"ha":800,"x_min":151,"x_max":868,"o":"m 847 361 q 868 267 868 317 q 801 80 868 171 q 650 -43 733 -11 q 526 -64 597 -64 q 318 -10 411 -64 q 174 175 210 54 q 163 247 163 211 q 301 494 163 381 q 167 675 182 515 q 324 883 151 832 q 497 904 394 906 q 769 764 697 914 q 783 703 783 733 q 653 501 783 604 q 847 361 794 467 m 600 699 q 556 740 585 721 q 503 760 526 760 q 364 696 364 760 q 365 682 364 689 q 472 565 390 565 q 501 568 486 565 q 581 614 550 576 q 606 678 606 646 q 600 699 606 692 m 689 294 q 628 342 669 321 q 549 363 586 363 q 514 356 529 363 q 440 322 449 328 q 400 254 400 296 q 408 213 400 236 q 526 110 447 110 q 601 122 557 110 q 704 243 704 151 q 689 294 704 274 z "},"9":{"ha":754,"x_min":149,"x_max":783,"o":"m 779 325 q 718 75 776 181 q 460 -78 633 -78 q 204 83 281 -78 q 156 335 156 186 q 157 386 156 364 l 385 407 q 369 292 369 346 q 469 154 369 157 q 582 374 582 151 q 575 488 582 432 l 561 549 q 354 457 446 457 q 164 619 224 457 q 149 731 149 672 q 365 994 149 947 q 465 1006 418 1006 q 783 476 783 1006 q 782 388 783 436 q 779 325 781 356 m 524 750 q 453 840 503 835 q 382 832 415 844 q 331 751 329 810 q 413 622 332 618 q 488 657 450 625 q 526 731 526 689 q 524 750 526 740 z "}," ":{"ha":419,"x_min":0,"x_max":0,"o":""},"!":{"ha":468,"x_min":144,"x_max":483,"o":"m 444 290 q 483 206 483 261 q 338 0 483 93 q 158 193 158 76 q 178 268 158 231 q 236 294 204 294 q 325 239 282 294 q 401 308 356 308 q 444 290 424 308 m 451 353 l 171 338 l 144 989 l 439 1013 l 451 353 z "},"\"":{"ha":792,"x_min":156,"x_max":786,"o":"m 726 661 q 786 524 786 607 q 647 269 786 393 l 649 268 q 633 231 649 246 q 594 215 617 215 q 582 217 588 215 q 471 149 532 181 l 469 149 q 229 338 313 231 q 156 524 156 432 q 215 663 156 608 q 326 704 265 704 q 471 635 401 704 q 615 703 540 703 q 726 661 676 703 m 618 428 q 529 549 613 560 q 461 440 450 538 l 483 260 l 546 272 l 531 350 l 600 357 l 596 407 l 519 397 q 510 453 510 429 q 532 490 510 488 q 561 447 561 494 q 558 419 561 433 l 618 428 m 624 268 q 594 297 624 297 q 565 268 565 297 q 594 239 565 239 q 624 268 624 239 m 418 504 q 329 625 411 635 q 261 517 250 614 l 282 336 l 344 349 l 331 426 l 400 432 l 396 483 l 318 474 q 308 529 308 506 q 332 567 308 564 q 361 524 361 569 q 358 496 361 510 l 418 504 m 439 346 q 410 375 439 375 q 381 346 381 375 q 410 317 381 317 q 439 346 439 317 z "},"#":{"ha":874,"x_min":154,"x_max":872,"o":"m 796 692 q 872 515 872 622 q 729 249 872 365 q 697 195 724 217 q 636 174 671 174 q 522 107 593 143 l 501 107 q 240 311 333 194 q 154 526 154 421 q 229 693 154 625 q 368 747 292 747 q 513 690 443 747 q 656 746 582 746 q 796 692 733 746 m 768 661 q 657 703 718 703 q 513 635 582 703 q 368 704 443 704 q 257 663 307 704 q 197 524 197 608 q 271 338 197 432 q 511 149 354 231 l 513 149 q 624 217 574 181 q 636 215 629 215 q 674 231 658 215 q 690 268 690 246 l 689 269 q 828 524 828 393 q 768 661 828 607 m 660 428 l 600 419 q 603 447 603 433 q 574 490 603 494 q 551 453 551 488 q 561 397 551 429 l 638 407 l 642 357 l 572 350 l 588 272 l 525 260 l 503 440 q 571 549 492 538 q 660 428 654 560 m 665 268 q 636 239 665 239 q 607 268 607 239 q 636 297 607 297 q 665 268 665 297 m 460 504 l 400 496 q 403 524 403 510 q 374 567 403 569 q 350 529 350 564 q 360 474 350 506 l 438 483 l 442 432 l 372 426 l 386 349 l 324 336 l 303 517 q 371 625 292 614 q 460 504 453 635 m 481 346 q 451 317 481 317 q 422 346 422 317 q 451 375 422 375 q 481 346 481 375 z "},"$":{"ha":792,"x_min":156,"x_max":786,"o":"m 726 661 q 786 524 786 607 q 647 269 786 393 l 649 268 q 633 231 649 246 q 594 215 617 215 q 582 217 588 215 q 471 149 532 181 l 469 149 q 229 338 313 231 q 156 524 156 432 q 215 663 156 608 q 326 704 265 704 q 471 635 401 704 q 615 703 540 703 q 726 661 676 703 m 618 428 q 529 549 613 560 q 461 440 450 538 l 483 260 l 546 272 l 531 350 l 600 357 l 596 407 l 519 397 q 510 453 510 429 q 532 490 510 488 q 561 447 561 494 q 558 419 561 433 l 618 428 m 624 268 q 594 297 624 297 q 565 268 565 297 q 594 239 565 239 q 624 268 624 239 m 418 504 q 329 625 411 635 q 261 517 250 614 l 282 336 l 344 349 l 331 426 l 400 432 l 396 483 l 318 474 q 308 529 308 506 q 332 567 308 564 q 361 524 361 569 q 358 496 361 510 l 418 504 m 439 346 q 410 375 439 375 q 381 346 381 375 q 410 317 381 317 q 439 346 439 317 z "},"%":{"ha":874,"x_min":154,"x_max":872,"o":"m 796 692 q 872 515 872 622 q 729 249 872 365 q 697 195 724 217 q 636 174 671 174 q 522 107 593 143 l 501 107 q 240 311 333 194 q 154 526 154 421 q 229 693 154 625 q 368 747 292 747 q 513 690 443 747 q 656 746 582 746 q 796 692 733 746 m 768 661 q 657 703 718 703 q 513 635 582 703 q 368 704 443 704 q 257 663 307 704 q 197 524 197 608 q 271 338 197 432 q 511 149 354 231 l 513 149 q 624 217 574 181 q 636 215 629 215 q 674 231 658 215 q 690 268 690 246 l 689 269 q 828 524 828 393 q 768 661 828 607 m 660 428 l 600 419 q 603 447 603 433 q 574 490 603 494 q 551 453 551 488 q 561 397 551 429 l 638 407 l 642 357 l 572 350 l 588 272 l 525 260 l 503 440 q 571 549 492 538 q 660 428 654 560 m 665 268 q 636 239 665 239 q 607 268 607 239 q 636 297 607 297 q 665 268 665 297 m 460 504 l 400 496 q 403 524 403 510 q 374 567 403 569 q 350 529 350 564 q 360 474 350 506 l 438 483 l 442 432 l 372 426 l 386 349 l 324 336 l 303 517 q 371 625 292 614 q 460 504 453 635 m 481 346 q 451 317 481 317 q 422 346 422 317 q 451 375 422 375 q 481 346 481 375 z "},"&":{"ha":792,"x_min":156,"x_max":786,"o":"m 726 661 q 786 524 786 607 q 647 269 786 393 l 649 268 q 633 231 649 246 q 594 215 617 215 q 582 217 588 215 q 471 149 532 181 l 469 149 q 229 338 313 231 q 156 524 156 432 q 215 663 156 608 q 326 704 265 704 q 471 635 401 704 q 615 703 540 703 q 726 661 676 703 m 618 428 q 529 549 613 560 q 461 440 450 538 l 483 260 l 546 272 l 531 350 l 600 357 l 596 407 l 519 397 q 510 453 510 429 q 532 490 510 488 q 561 447 561 494 q 558 419 561 433 l 618 428 m 624 268 q 594 297 624 297 q 565 268 565 297 q 594 239 565 239 q 624 268 624 239 m 418 504 q 329 625 411 635 q 261 517 250 614 l 282 336 l 344 349 l 331 426 l 400 432 l 396 483 l 318 474 q 308 529 308 506 q 332 567 308 564 q 361 524 361 569 q 358 496 361 510 l 418 504 m 439 346 q 410 375 439 375 q 381 346 381 375 q 410 317 381 317 q 439 346 439 317 z "},"'":{"ha":444,"x_min":143,"x_max":478,"o":"m 435 900 q 478 811 478 860 q 313 615 478 708 q 143 811 143 699 q 167 892 143 851 q 224 914 192 914 q 313 854 271 914 q 389 919 346 919 q 435 900 414 919 z "},"(":{"ha":874,"x_min":154,"x_max":872,"o":"m 796 692 q 872 515 872 622 q 729 249 872 365 q 697 195 724 217 q 636 174 671 174 q 522 107 593 143 l 501 107 q 240 311 333 194 q 154 526 154 421 q 229 693 154 625 q 368 747 292 747 q 513 690 443 747 q 656 746 582 746 q 796 692 733 746 m 768 661 q 657 703 718 703 q 513 635 582 703 q 368 704 443 704 q 257 663 307 704 q 197 524 197 608 q 271 338 197 432 q 511 149 354 231 l 513 149 q 624 217 574 181 q 636 215 629 215 q 674 231 658 215 q 690 268 690 246 l 689 269 q 828 524 828 393 q 768 661 828 607 m 660 428 l 600 419 q 603 447 603 433 q 574 490 603 494 q 551 453 551 488 q 561 397 551 429 l 638 407 l 642 357 l 572 350 l 588 272 l 525 260 l 503 440 q 571 549 492 538 q 660 428 654 560 m 665 268 q 636 239 665 239 q 607 268 607 239 q 636 297 607 297 q 665 268 665 297 m 460 504 l 400 496 q 403 524 403 510 q 374 567 403 569 q 350 529 350 564 q 360 474 350 506 l 438 483 l 442 432 l 372 426 l 386 349 l 324 336 l 303 517 q 371 625 292 614 q 460 504 453 635 m 481 346 q 451 317 481 317 q 422 346 422 317 q 451 375 422 375 q 481 346 481 375 z "},")":{"ha":792,"x_min":156,"x_max":786,"o":"m 726 661 q 786 524 786 607 q 647 269 786 393 l 649 268 q 633 231 649 246 q 594 215 617 215 q 582 217 588 215 q 471 149 532 181 l 469 149 q 229 338 313 231 q 156 524 156 432 q 215 663 156 608 q 326 704 265 704 q 471 635 401 704 q 615 703 540 703 q 726 661 676 703 m 618 428 q 529 549 613 560 q 461 440 450 538 l 483 260 l 546 272 l 531 350 l 600 357 l 596 407 l 519 397 q 510 453 510 429 q 532 490 510 488 q 561 447 561 494 q 558 419 561 433 l 618 428 m 624 268 q 594 297 624 297 q 565 268 565 297 q 594 239 565 239 q 624 268 624 239 m 418 504 q 329 625 411 635 q 261 517 250 614 l 282 336 l 344 349 l 331 426 l 400 432 l 396 483 l 318 474 q 308 529 308 506 q 332 567 308 564 q 361 524 361 569 q 358 496 361 510 l 418 504 m 439 346 q 410 375 439 375 q 381 346 381 375 q 410 317 381 317 q 439 346 439 317 z "},"*":{"ha":874,"x_min":154,"x_max":872,"o":"m 796 692 q 872 515 872 622 q 729 249 872 365 q 697 195 724 217 q 636 174 671 174 q 522 107 593 143 l 501 107 q 240 311 333 194 q 154 526 154 421 q 229 693 154 625 q 368 747 292 747 q 513 690 443 747 q 656 746 582 746 q 796 692 733 746 m 768 661 q 657 703 718 703 q 513 635 582 703 q 368 704 443 704 q 257 663 307 704 q 197 524 197 608 q 271 338 197 432 q 511 149 354 231 l 513 149 q 624 217 574 181 q 636 215 629 215 q 674 231 658 215 q 690 268 690 246 l 689 269 q 828 524 828 393 q 768 661 828 607 m 660 428 l 600 419 q 603 447 603 433 q 574 490 603 494 q 551 453 551 488 q 561 397 551 429 l 638 407 l 642 357 l 572 350 l 588 272 l 525 260 l 503 440 q 571 549 492 538 q 660 428 654 560 m 665 268 q 636 239 665 239 q 607 268 607 239 q 636 297 607 297 q 665 268 665 297 m 460 504 l 400 496 q 403 524 403 510 q 374 567 403 569 q 350 529 350 564 q 360 474 350 506 l 438 483 l 442 432 l 372 426 l 386 349 l 324 336 l 303 517 q 371 625 292 614 q 460 504 453 635 m 481 346 q 451 317 481 317 q 422 346 422 317 q 451 375 422 375 q 481 346 481 375 z "},"+":{"ha":792,"x_min":156,"x_max":786,"o":"m 726 661 q 786 524 786 607 q 647 269 786 393 l 649 268 q 633 231 649 246 q 594 215 617 215 q 582 217 588 215 q 471 149 532 181 l 469 149 q 229 338 313 231 q 156 524 156 432 q 215 663 156 608 q 326 704 265 704 q 471 635 401 704 q 615 703 540 703 q 726 661 676 703 m 618 428 q 529 549 613 560 q 461 440 450 538 l 483 260 l 546 272 l 531 350 l 600 357 l 596 407 l 519 397 q 510 453 510 429 q 532 490 510 488 q 561 447 561 494 q 558 419 561 433 l 618 428 m 624 268 q 594 297 624 297 q 565 268 565 297 q 594 239 565 239 q 624 268 624 239 m 418 504 q 329 625 411 635 q 261 517 250 614 l 282 336 l 344 349 l 331 426 l 400 432 l 396 483 l 318 474 q 308 529 308 506 q 332 567 308 564 q 361 524 361 569 q 358 496 361 510 l 418 504 m 439 346 q 410 375 439 375 q 381 346 381 375 q 410 317 381 317 q 439 346 439 317 z "},",":{"ha":476,"x_min":158,"x_max":483,"o":"m 444 290 q 483 206 483 261 q 338 0 483 93 q 158 193 158 76 q 178 268 158 231 q 236 294 204 294 q 325 239 282 294 q 401 308 356 308 q 444 290 424 308 z "},"-":{"ha":444,"x_min":124,"x_max":458,"o":"m 425 642 q 458 560 458 603 q 274 372 458 453 q 124 571 124 464 q 157 661 124 617 q 208 679 181 679 q 299 610 260 679 q 375 667 335 667 q 425 642 403 667 z "},"‐":{"ha":444,"x_min":124,"x_max":458,"o":"m 425 642 q 458 560 458 603 q 274 372 458 453 q 124 571 124 464 q 157 661 124 617 q 208 679 181 679 q 299 610 260 679 q 375 667 335 667 q 425 642 403 667 z "},".":{"ha":476,"x_min":158,"x_max":483,"o":"m 444 290 q 483 206 483 261 q 338 0 483 93 q 158 193 158 76 q 178 268 158 231 q 236 294 204 294 q 325 239 282 294 q 401 308 356 308 q 444 290 424 308 z "},"/":{"ha":874,"x_min":154,"x_max":872,"o":"m 796 692 q 872 515 872 622 q 729 249 872 365 q 697 195 724 217 q 636 174 671 174 q 522 107 593 143 l 501 107 q 240 311 333 194 q 154 526 154 421 q 229 693 154 625 q 368 747 292 747 q 513 690 443 747 q 656 746 582 746 q 796 692 733 746 m 768 661 q 657 703 718 703 q 513 635 582 703 q 368 704 443 704 q 257 663 307 704 q 197 524 197 608 q 271 338 197 432 q 511 149 354 231 l 513 149 q 624 217 574 181 q 636 215 629 215 q 674 231 658 215 q 690 268 690 246 l 689 269 q 828 524 828 393 q 768 661 828 607 m 660 428 l 600 419 q 603 447 603 433 q 574 490 603 494 q 551 453 551 488 q 561 397 551 429 l 638 407 l 642 357 l 572 350 l 588 272 l 525 260 l 503 440 q 571 549 492 538 q 660 428 654 560 m 665 268 q 636 239 665 239 q 607 268 607 239 q 636 297 607 297 q 665 268 665 297 m 460 504 l 400 496 q 403 524 403 510 q 374 567 403 569 q 350 529 350 564 q 360 474 350 506 l 438 483 l 442 432 l 372 426 l 386 349 l 324 336 l 303 517 q 371 625 292 614 q 460 504 453 635 m 481 346 q 451 317 481 317 q 422 346 422 317 q 451 375 422 375 q 481 346 481 375 z "},":":{"ha":476,"x_min":158,"x_max":494,"o":"m 444 290 q 483 206 483 261 q 338 0 483 93 q 158 193 158 76 q 178 268 158 231 q 236 294 204 294 q 325 239 282 294 q 401 308 356 308 q 444 290 424 308 m 468 681 q 494 610 494 651 q 453 507 494 557 q 317 410 406 449 q 168 608 168 503 q 200 699 168 656 q 251 717 224 717 q 342 647 304 717 q 419 704 379 704 q 468 681 447 704 z "},";":{"ha":476,"x_min":158,"x_max":494,"o":"m 444 290 q 483 206 483 261 q 338 0 483 93 q 158 193 158 76 q 178 268 158 231 q 236 294 204 294 q 325 239 282 294 q 401 308 356 308 q 444 290 424 308 m 468 681 q 494 610 494 651 q 453 507 494 557 q 317 410 406 449 q 168 608 168 503 q 200 699 168 656 q 251 717 224 717 q 342 647 304 717 q 419 704 379 704 q 468 681 447 704 z "},"<":{"ha":792,"x_min":156,"x_max":786,"o":"m 726 661 q 786 524 786 607 q 647 269 786 393 l 649 268 q 633 231 649 246 q 594 215 617 215 q 582 217 588 215 q 471 149 532 181 l 469 149 q 229 338 313 231 q 156 524 156 432 q 215 663 156 608 q 326 704 265 704 q 471 635 401 704 q 615 703 540 703 q 726 661 676 703 m 618 428 q 529 549 613 560 q 461 440 450 538 l 483 260 l 546 272 l 531 350 l 600 357 l 596 407 l 519 397 q 510 453 510 429 q 532 490 510 488 q 561 447 561 494 q 558 419 561 433 l 618 428 m 624 268 q 594 297 624 297 q 565 268 565 297 q 594 239 565 239 q 624 268 624 239 m 418 504 q 329 625 411 635 q 261 517 250 614 l 282 336 l 344 349 l 331 426 l 400 432 l 396 483 l 318 474 q 308 529 308 506 q 332 567 308 564 q 361 524 361 569 q 358 496 361 510 l 418 504 m 439 346 q 410 375 439 375 q 381 346 381 375 q 410 317 381 317 q 439 346 439 317 z "},"=":{"ha":874,"x_min":154,"x_max":872,"o":"m 796 692 q 872 515 872 622 q 729 249 872 365 q 697 195 724 217 q 636 174 671 174 q 522 107 593 143 l 501 107 q 240 311 333 194 q 154 526 154 421 q 229 693 154 625 q 368 747 292 747 q 513 690 443 747 q 656 746 582 746 q 796 692 733 746 m 768 661 q 657 703 718 703 q 513 635 582 703 q 368 704 443 704 q 257 663 307 704 q 197 524 197 608 q 271 338 197 432 q 511 149 354 231 l 513 149 q 624 217 574 181 q 636 215 629 215 q 674 231 658 215 q 690 268 690 246 l 689 269 q 828 524 828 393 q 768 661 828 607 m 660 428 l 600 419 q 603 447 603 433 q 574 490 603 494 q 551 453 551 488 q 561 397 551 429 l 638 407 l 642 357 l 572 350 l 588 272 l 525 260 l 503 440 q 571 549 492 538 q 660 428 654 560 m 665 268 q 636 239 665 239 q 607 268 607 239 q 636 297 607 297 q 665 268 665 297 m 460 504 l 400 496 q 403 524 403 510 q 374 567 403 569 q 350 529 350 564 q 360 474 350 506 l 438 483 l 442 432 l 372 426 l 386 349 l 324 336 l 303 517 q 371 625 292 614 q 460 504 453 635 m 481 346 q 451 317 481 317 q 422 346 422 317 q 451 375 422 375 q 481 346 481 375 z "},">":{"ha":792,"x_min":156,"x_max":786,"o":"m 726 661 q 786 524 786 607 q 647 269 786 393 l 649 268 q 633 231 649 246 q 594 215 617 215 q 582 217 588 215 q 471 149 532 181 l 469 149 q 229 338 313 231 q 156 524 156 432 q 215 663 156 608 q 326 704 265 704 q 471 635 401 704 q 615 703 540 703 q 726 661 676 703 m 618 428 q 529 549 613 560 q 461 440 450 538 l 483 260 l 546 272 l 531 350 l 600 357 l 596 407 l 519 397 q 510 453 510 429 q 532 490 510 488 q 561 447 561 494 q 558 419 561 433 l 618 428 m 624 268 q 594 297 624 297 q 565 268 565 297 q 594 239 565 239 q 624 268 624 239 m 418 504 q 329 625 411 635 q 261 517 250 614 l 282 336 l 344 349 l 331 426 l 400 432 l 396 483 l 318 474 q 308 529 308 506 q 332 567 308 564 q 361 524 361 569 q 358 496 361 510 l 418 504 m 439 346 q 410 375 439 375 q 381 346 381 375 q 410 317 381 317 q 439 346 439 317 z "},"?":{"ha":792,"x_min":131,"x_max":815,"o":"m 463 272 q 479 258 463 272 q 496 201 496 244 q 338 0 496 101 q 156 185 156 69 q 175 257 156 219 q 242 290 204 290 q 325 239 285 290 q 397 300 353 300 q 463 272 429 300 m 190 346 l 443 353 l 439 432 q 628 476 549 447 q 815 685 815 549 q 700 911 815 835 q 446 976 603 976 q 131 933 311 976 l 157 700 q 501 767 375 767 q 614 710 614 767 q 157 599 614 613 l 190 346 z "},"@":{"ha":1417,"x_min":472,"x_max":1103,"o":"m 1043 771 q 1103 633 1103 717 q 1028 446 1103 540 q 788 257 946 340 l 786 257 q 546 446 629 340 q 472 633 472 540 q 532 772 472 718 q 643 813 582 813 q 788 744 718 813 q 932 813 857 813 q 1043 771 993 813 z "},"A":{"ha":668,"x_min":69,"x_max":792,"o":"m 792 6 q 554 -19 751 -1 l 517 271 l 331 260 l 292 -28 l 69 3 l 310 931 l 558 942 l 792 6 m 500 413 l 413 665 l 344 411 l 500 413 z "},"B":{"ha":701,"x_min":157,"x_max":792,"o":"m 792 254 q 424 -31 792 -31 q 157 4 293 -31 l 157 908 q 381 938 271 938 q 700 671 700 938 q 621 514 700 569 q 792 254 792 444 m 549 658 q 436 749 553 749 q 354 739 396 749 l 347 561 q 381 560 363 560 q 549 658 544 560 m 608 276 q 399 417 619 417 q 354 415 375 417 l 349 158 q 400 156 372 156 q 608 276 600 156 z "},"C":{"ha":768,"x_min":90,"x_max":863,"o":"m 863 289 q 767 119 819 190 q 482 -50 639 -50 q 133 165 225 -50 q 93 381 96 256 q 121 671 90 550 q 418 961 194 961 q 747 818 642 961 q 808 675 792 758 l 569 590 q 457 796 561 807 q 342 671 392 789 q 293 428 293 558 q 336 243 293 313 q 482 164 385 163 q 650 382 578 165 l 863 289 z "},"D":{"ha":742,"x_min":157,"x_max":807,"o":"m 792 428 q 593 67 785 175 q 268 -7 464 -7 q 157 0 207 -7 l 157 904 q 379 947 193 914 q 467 954 428 954 q 792 428 807 954 m 351 707 l 354 189 q 500 253 438 203 q 610 488 606 333 q 447 725 617 725 q 351 707 400 725 z "},"E":{"ha":761,"x_min":129,"x_max":792,"o":"m 792 519 l 313 469 q 311 438 311 456 q 442 254 311 254 q 528 272 479 254 l 458 -10 q 210 135 301 -18 q 129 472 129 271 q 190 769 129 644 q 372 924 257 906 q 464 932 426 932 q 792 519 764 932 m 589 647 q 443 763 564 771 q 394 746 415 760 q 335 618 343 710 l 589 647 z "},"F":{"ha":647,"x_min":157,"x_max":663,"o":"m 663 696 l 340 679 l 356 590 l 525 608 l 531 431 l 365 415 l 403 26 l 157 0 l 160 900 l 650 925 q 663 696 653 863 z "},"G":{"ha":697,"x_min":140,"x_max":783,"o":"m 725 243 q 661 17 717 103 q 407 -106 581 -112 q 197 29 261 -99 q 151 263 151 119 q 161 390 151 331 l 385 382 q 351 219 351 290 q 436 107 351 111 q 561 271 533 101 q 571 443 574 342 l 571 446 q 442 407 521 407 q 394 410 419 407 q 207 501 279 424 q 140 668 140 574 q 153 740 140 706 q 382 933 222 933 q 547 889 458 933 l 543 954 l 783 969 l 725 243 m 554 592 l 546 786 q 342 665 342 775 q 343 647 342 657 q 444 569 356 569 q 554 592 496 569 z "},"H":{"ha":792,"x_min":103,"x_max":797,"o":"m 792 -101 l 529 -119 q 517 400 533 232 q 456 506 506 506 q 401 472 426 506 q 372 397 375 439 q 396 -10 367 308 l 157 -14 l 103 1111 l 372 1160 l 344 697 q 525 764 446 764 q 750 507 682 764 q 797 63 797 332 q 792 -101 797 -28 z "},"I":{"ha":410,"x_min":157,"x_max":424,"o":"m 424 936 l 394 -14 l 167 0 l 157 904 l 424 936 z "},"J":{"ha":754,"x_min":146,"x_max":792,"o":"m 792 938 l 779 325 q 718 75 776 181 q 460 -78 633 -78 q 174 175 242 -78 q 150 428 146 281 l 378 449 q 365 325 365 385 q 469 154 365 157 q 582 374 582 151 q 575 488 582 432 l 521 904 l 792 938 z "},"K":{"ha":831,"x_min":157,"x_max":915,"o":"m 915 -114 l 597 -118 q 607 35 607 -44 q 449 371 607 371 q 401 364 426 371 l 393 0 l 157 0 l 157 904 l 413 921 l 401 553 q 610 794 610 560 q 592 935 610 865 l 833 881 q 663 457 831 588 q 915 -114 865 325 z "},"L":{"ha":594,"x_min":157,"x_max":611,"o":"m 611 21 l 157 0 l 165 904 l 378 928 l 369 257 l 593 281 l 611 21 z "},"M":{"ha":1349,"x_min":157,"x_max":1364,"o":"m 1357 -17 l 1069 -40 q 1124 376 1069 126 q 1139 535 1139 458 q 1036 729 1139 729 q 914 496 940 729 q 890 -67 890 283 l 611 -31 l 689 375 q 699 513 699 443 q 589 738 699 740 q 383 446 444 735 q 381 379 381 414 q 403 160 381 294 q 426 -11 425 21 l 182 -43 l 157 904 l 357 913 l 361 860 q 574 940 453 940 q 803 842 714 940 q 1021 944 885 944 q 1290 790 1197 944 q 1356 539 1364 669 q 1347 283 1347 421 q 1357 -17 1347 125 z "},"N":{"ha":924,"x_min":157,"x_max":931,"o":"m 931 -47 l 686 -72 l 689 375 q 589 738 692 740 q 424 614 472 735 q 393 438 393 540 q 424 -12 392 299 l 197 -46 l 157 904 l 358 935 l 364 863 q 574 940 454 940 q 842 789 749 940 q 914 540 911 676 q 931 -47 917 419 z "},"O":{"ha":821,"x_min":133,"x_max":853,"o":"m 835 525 q 853 346 853 424 q 536 -14 853 24 q 482 -17 508 -17 q 243 107 328 -17 q 143 407 178 204 q 133 518 133 464 q 210 792 133 676 q 446 922 296 922 q 686 822 579 922 q 835 525 801 713 m 585 532 q 614 469 614 510 q 507 318 614 386 q 375 460 375 374 q 389 515 375 486 q 432 535 408 535 q 497 493 467 535 q 553 544 519 544 q 585 532 571 544 m 458 711 q 340 507 340 665 q 347 435 340 472 q 400 251 368 304 q 496 194 433 194 q 521 196 507 194 q 622 261 583 206 q 661 400 661 317 q 650 488 661 443 q 561 663 625 597 q 458 711 506 719 z "},"P":{"ha":814,"x_min":160,"x_max":853,"o":"m 160 932 q 378 951 278 951 q 783 799 663 951 q 847 646 833 735 q 853 567 853 611 q 775 294 853 401 q 385 147 658 133 l 397 -47 l 161 -60 l 160 932 m 372 758 l 374 335 q 636 449 563 329 q 672 569 667 499 q 631 689 678 636 q 424 761 567 761 q 372 758 399 761 z "},"Q":{"ha":821,"x_min":149,"x_max":1054,"o":"m 1054 -186 l 942 -232 q 832 -254 885 -254 q 518 -15 654 -254 q 496 -17 507 -17 q 257 113 361 -17 q 149 435 149 249 q 190 763 149 672 q 450 904 253 899 q 758 786 668 911 q 833 468 833 683 q 679 60 833 201 l 681 56 q 825 -50 736 -50 q 964 7 894 -50 l 1054 -186 m 663 443 q 614 645 669 565 q 469 722 558 725 q 353 650 385 719 q 326 443 325 590 q 419 213 328 283 q 385 338 397 281 l 547 388 q 597 240 554 360 q 663 443 656 321 z "},"R":{"ha":739,"x_min":132,"x_max":831,"o":"m 831 -147 l 586 -164 q 594 -8 594 -89 q 408 361 594 361 q 356 354 383 361 l 372 8 l 132 -7 l 132 917 q 397 953 282 953 q 694 822 618 953 q 726 693 726 768 q 618 433 735 510 q 763 263 715 368 q 831 -147 828 117 m 563 710 q 385 793 553 793 q 325 790 357 793 l 336 528 q 399 521 369 521 q 563 710 567 521 z "},"S":{"ha":693,"x_min":18,"x_max":707,"o":"m 707 618 l 472 576 q 385 751 485 746 q 315 668 315 746 q 351 574 315 618 q 472 501 394 524 q 660 357 601 464 q 700 168 704 275 q 607 -11 696 75 q 383 -101 508 -104 q 18 131 233 -97 l 183 319 q 388 108 251 115 q 474 129 442 107 q 506 186 506 151 q 456 272 506 231 q 294 349 399 321 q 172 451 217 369 q 133 626 133 526 q 185 831 133 744 q 339 932 243 925 q 497 903 428 933 q 707 618 664 832 z "},"T":{"ha":736,"x_min":126,"x_max":776,"o":"m 764 675 l 563 689 l 549 -28 l 289 -37 l 329 674 l 126 646 l 131 925 l 776 919 l 764 675 z "},"U":{"ha":800,"x_min":111,"x_max":824,"o":"m 493 -37 q 182 181 278 -37 q 111 606 111 342 q 133 903 111 758 l 389 908 q 346 497 346 665 q 472 219 346 210 q 589 479 589 228 q 531 929 589 661 l 811 953 q 824 692 824 829 q 764 217 824 399 q 493 -37 682 -37 z "},"V":{"ha":750,"x_min":129,"x_max":792,"o":"m 792 822 l 549 0 l 351 -15 l 129 896 l 372 915 q 461 394 397 774 l 567 847 l 792 822 z "},"W":{"ha":1165,"x_min":101,"x_max":1242,"o":"m 1242 938 l 1031 7 l 821 17 q 660 468 788 106 l 521 0 l 324 -15 l 101 896 l 344 915 q 433 394 369 774 l 539 847 l 764 822 l 889 471 l 982 956 l 1242 938 z "},"X":{"ha":978,"x_min":157,"x_max":1093,"o":"m 1093 147 l 886 -24 l 611 311 l 410 -76 l 175 -22 l 446 461 l 157 833 l 413 926 l 583 685 l 728 964 l 992 904 l 775 519 l 1093 147 z "},"Y":{"ha":754,"x_min":90,"x_max":790,"o":"m 788 332 q 722 78 786 190 q 460 -78 633 -78 q 157 257 206 -78 l 365 310 q 469 154 369 157 q 582 374 582 151 q 581 424 582 399 q 354 361 451 361 q 136 513 201 361 q 90 776 90 617 q 96 874 90 829 l 321 890 q 306 726 306 807 q 325 588 306 642 q 400 540 342 540 q 561 597 476 540 l 521 904 l 754 954 q 788 332 790 508 z "},"Z":{"ha":806,"x_min":121,"x_max":850,"o":"m 850 628 l 485 203 l 764 208 l 764 -24 l 196 -36 l 147 188 l 653 710 l 144 674 l 121 904 l 810 925 l 850 628 z "},"[":{"ha":874,"x_min":154,"x_max":872,"o":"m 796 692 q 872 515 872 622 q 729 249 872 365 q 697 195 724 217 q 636 174 671 174 q 522 107 593 143 l 501 107 q 240 311 333 194 q 154 526 154 421 q 229 693 154 625 q 368 747 292 747 q 513 690 443 747 q 656 746 582 746 q 796 692 733 746 m 768 661 q 657 703 718 703 q 513 635 582 703 q 368 704 443 704 q 257 663 307 704 q 197 524 197 608 q 271 338 197 432 q 511 149 354 231 l 513 149 q 624 217 574 181 q 636 215 629 215 q 674 231 658 215 q 690 268 690 246 l 689 269 q 828 524 828 393 q 768 661 828 607 m 660 428 l 600 419 q 603 447 603 433 q 574 490 603 494 q 551 453 551 488 q 561 397 551 429 l 638 407 l 642 357 l 572 350 l 588 272 l 525 260 l 503 440 q 571 549 492 538 q 660 428 654 560 m 665 268 q 636 239 665 239 q 607 268 607 239 q 636 297 607 297 q 665 268 665 297 m 460 504 l 400 496 q 403 524 403 510 q 374 567 403 569 q 350 529 350 564 q 360 474 350 506 l 438 483 l 442 432 l 372 426 l 386 349 l 324 336 l 303 517 q 371 625 292 614 q 460 504 453 635 m 481 346 q 451 317 481 317 q 422 346 422 317 q 451 375 422 375 q 481 346 481 375 z "},"\\":{"ha":792,"x_min":156,"x_max":786,"o":"m 726 661 q 786 524 786 607 q 647 269 786 393 l 649 268 q 633 231 649 246 q 594 215 617 215 q 582 217 588 215 q 471 149 532 181 l 469 149 q 229 338 313 231 q 156 524 156 432 q 215 663 156 608 q 326 704 265 704 q 471 635 401 704 q 615 703 540 703 q 726 661 676 703 m 618 428 q 529 549 613 560 q 461 440 450 538 l 483 260 l 546 272 l 531 350 l 600 357 l 596 407 l 519 397 q 510 453 510 429 q 532 490 510 488 q 561 447 561 494 q 558 419 561 433 l 618 428 m 624 268 q 594 297 624 297 q 565 268 565 297 q 594 239 565 239 q 624 268 624 239 m 418 504 q 329 625 411 635 q 261 517 250 614 l 282 336 l 344 349 l 331 426 l 400 432 l 396 483 l 318 474 q 308 529 308 506 q 332 567 308 564 q 361 524 361 569 q 358 496 361 510 l 418 504 m 439 346 q 410 375 439 375 q 381 346 381 375 q 410 317 381 317 q 439 346 439 317 z "},"]":{"ha":874,"x_min":154,"x_max":872,"o":"m 796 692 q 872 515 872 622 q 729 249 872 365 q 697 195 724 217 q 636 174 671 174 q 522 107 593 143 l 501 107 q 240 311 333 194 q 154 526 154 421 q 229 693 154 625 q 368 747 292 747 q 513 690 443 747 q 656 746 582 746 q 796 692 733 746 m 768 661 q 657 703 718 703 q 513 635 582 703 q 368 704 443 704 q 257 663 307 704 q 197 524 197 608 q 271 338 197 432 q 511 149 354 231 l 513 149 q 624 217 574 181 q 636 215 629 215 q 674 231 658 215 q 690 268 690 246 l 689 269 q 828 524 828 393 q 768 661 828 607 m 660 428 l 600 419 q 603 447 603 433 q 574 490 603 494 q 551 453 551 488 q 561 397 551 429 l 638 407 l 642 357 l 572 350 l 588 272 l 525 260 l 503 440 q 571 549 492 538 q 660 428 654 560 m 665 268 q 636 239 665 239 q 607 268 607 239 q 636 297 607 297 q 665 268 665 297 m 460 504 l 400 496 q 403 524 403 510 q 374 567 403 569 q 350 529 350 564 q 360 474 350 506 l 438 483 l 442 432 l 372 426 l 386 349 l 324 336 l 303 517 q 371 625 292 614 q 460 504 453 635 m 481 346 q 451 317 481 317 q 422 346 422 317 q 451 375 422 375 q 481 346 481 375 z "},"^":{"ha":792,"x_min":156,"x_max":786,"o":"m 726 661 q 786 524 786 607 q 647 269 786 393 l 649 268 q 633 231 649 246 q 594 215 617 215 q 582 217 588 215 q 471 149 532 181 l 469 149 q 229 338 313 231 q 156 524 156 432 q 215 663 156 608 q 326 704 265 704 q 471 635 401 704 q 615 703 540 703 q 726 661 676 703 m 618 428 q 529 549 613 560 q 461 440 450 538 l 483 260 l 546 272 l 531 350 l 600 357 l 596 407 l 519 397 q 510 453 510 429 q 532 490 510 488 q 561 447 561 494 q 558 419 561 433 l 618 428 m 624 268 q 594 297 624 297 q 565 268 565 297 q 594 239 565 239 q 624 268 624 239 m 418 504 q 329 625 411 635 q 261 517 250 614 l 282 336 l 344 349 l 331 426 l 400 432 l 396 483 l 318 474 q 308 529 308 506 q 332 567 308 564 q 361 524 361 569 q 358 496 361 510 l 418 504 m 439 346 q 410 375 439 375 q 381 346 381 375 q 410 317 381 317 q 439 346 439 317 z "},"_":{"ha":874,"x_min":154,"x_max":872,"o":"m 796 692 q 872 515 872 622 q 729 249 872 365 q 697 195 724 217 q 636 174 671 174 q 522 107 593 143 l 501 107 q 240 311 333 194 q 154 526 154 421 q 229 693 154 625 q 368 747 292 747 q 513 690 443 747 q 656 746 582 746 q 796 692 733 746 m 768 661 q 657 703 718 703 q 513 635 582 703 q 368 704 443 704 q 257 663 307 704 q 197 524 197 608 q 271 338 197 432 q 511 149 354 231 l 513 149 q 624 217 574 181 q 636 215 629 215 q 674 231 658 215 q 690 268 690 246 l 689 269 q 828 524 828 393 q 768 661 828 607 m 660 428 l 600 419 q 603 447 603 433 q 574 490 603 494 q 551 453 551 488 q 561 397 551 429 l 638 407 l 642 357 l 572 350 l 588 272 l 525 260 l 503 440 q 571 549 492 538 q 660 428 654 560 m 665 268 q 636 239 665 239 q 607 268 607 239 q 636 297 607 297 q 665 268 665 297 m 460 504 l 400 496 q 403 524 403 510 q 374 567 403 569 q 350 529 350 564 q 360 474 350 506 l 438 483 l 442 432 l 372 426 l 386 349 l 324 336 l 303 517 q 371 625 292 614 q 460 504 453 635 m 481 346 q 451 317 481 317 q 422 346 422 317 q 451 375 422 375 q 481 346 481 375 z "},"`":{"ha":1417,"x_min":472,"x_max":1103,"o":"m 1043 771 q 1103 633 1103 717 q 1028 446 1103 540 q 788 257 946 340 l 786 257 q 546 446 629 340 q 472 633 472 540 q 532 772 472 718 q 643 813 582 813 q 788 744 718 813 q 932 813 857 813 q 1043 771 993 813 z "},"a":{"ha":754,"x_min":47,"x_max":792,"o":"m 792 -78 l 521 -44 l 531 29 q 221 67 340 25 q 61 278 47 128 q 378 488 81 488 q 582 465 475 488 q 565 624 585 563 q 469 706 538 707 q 365 531 364 703 l 151 549 q 221 799 164 703 q 460 938 300 938 q 718 785 633 938 q 779 535 776 679 l 792 -78 m 564 321 q 393 340 469 340 q 253 271 256 340 q 406 181 249 181 q 556 197 475 181 l 564 321 z "},"b":{"ha":725,"x_min":143,"x_max":786,"o":"m 779 401 q 729 192 786 294 q 307 -6 617 -6 q 143 7 231 -6 l 147 1119 l 360 1108 l 350 858 q 733 647 632 876 q 779 401 786 529 m 604 424 q 574 558 600 503 q 351 686 511 692 l 333 160 q 372 158 353 158 q 583 290 531 158 q 604 424 606 346 z "},"c":{"ha":768,"x_min":99,"x_max":868,"o":"m 617 506 q 475 711 604 728 q 343 554 386 700 q 317 378 314 456 q 474 235 321 235 q 792 325 593 235 l 868 97 q 417 -17 603 -17 q 221 49 283 -17 q 99 383 99 175 q 206 744 99 585 q 474 917 318 913 q 757 739 672 922 q 803 554 792 663 l 617 506 z "},"d":{"ha":779,"x_min":104,"x_max":797,"o":"m 797 11 q 572 -10 675 -10 q 174 135 293 -10 q 110 279 124 196 q 104 361 104 315 q 182 643 104 532 q 572 796 299 810 l 561 1092 l 797 1106 l 797 11 m 604 183 l 585 608 q 321 494 394 614 q 285 374 290 444 q 553 181 315 181 q 604 183 578 181 z "},"e":{"ha":754,"x_min":79,"x_max":828,"o":"m 828 233 q 447 -8 682 -8 q 367 0 407 -8 q 131 171 203 31 q 79 414 79 271 q 89 532 79 478 q 146 708 110 633 q 394 904 236 888 q 453 907 425 907 q 776 679 689 907 q 817 451 813 585 l 274 404 q 449 183 288 183 q 547 203 493 183 q 660 319 621 229 l 828 233 m 429 711 q 300 557 314 694 l 574 588 q 450 713 547 713 q 429 711 440 713 z "},"f":{"ha":672,"x_min":132,"x_max":717,"o":"m 717 547 l 494 517 q 504 622 504 569 q 396 779 504 792 q 313 640 313 769 q 349 433 313 551 l 632 469 l 647 283 l 390 261 l 446 -25 l 215 -71 l 136 594 q 132 672 132 635 q 389 993 132 960 q 429 996 410 996 q 681 771 608 996 q 717 547 710 678 z "},"g":{"ha":697,"x_min":93,"x_max":749,"o":"m 744 219 q 749 142 749 179 q 492 -179 749 -146 q 451 -182 471 -182 q 200 43 272 -182 q 164 267 171 136 l 386 297 q 376 192 376 244 q 485 35 376 22 q 579 213 579 46 q 558 389 579 294 l 557 393 q 390 326 506 333 q 175 397 263 318 q 93 574 93 471 q 96 610 93 592 q 336 843 136 843 q 457 825 394 843 l 443 888 l 676 944 l 744 219 m 517 533 l 475 722 q 293 585 293 681 q 299 551 293 568 q 385 489 319 489 q 517 533 443 489 z "},"h":{"ha":792,"x_min":103,"x_max":797,"o":"m 792 -101 l 529 -119 q 517 400 533 232 q 456 506 506 506 q 401 472 426 506 q 372 397 375 439 q 396 -10 367 308 l 157 -14 l 103 1111 l 372 1160 l 344 697 q 525 764 446 764 q 750 507 682 764 q 797 63 797 332 q 792 -101 797 -28 z "},"i":{"ha":476,"x_min":133,"x_max":481,"o":"m 421 1175 q 460 1090 460 1146 q 314 885 460 978 q 133 1078 133 961 q 154 1153 133 1115 q 213 1179 179 1179 q 301 1124 258 1179 q 376 1193 332 1193 q 421 1175 400 1193 m 481 -1 l 151 10 l 179 803 l 435 836 l 481 -1 z "},"j":{"ha":782,"x_min":128,"x_max":804,"o":"m 707 1121 q 750 1035 750 1093 q 625 838 750 931 q 449 1032 449 901 q 456 1082 449 1057 q 514 1111 481 1111 q 597 1064 556 1111 q 668 1135 624 1135 q 707 1121 689 1135 m 803 138 q 736 -126 800 -8 q 474 -290 647 -292 q 178 -35 268 -289 q 128 219 139 72 l 363 275 q 360 201 360 242 q 483 -57 360 -54 q 593 163 593 -60 q 585 290 593 226 l 517 758 q 760 799 638 778 q 790 436 775 674 q 803 138 804 211 z "},"k":{"ha":831,"x_min":157,"x_max":906,"o":"m 663 457 q 826 265 774 385 q 899 -278 906 82 l 579 -300 q 613 46 613 -114 q 457 374 613 374 q 401 364 431 374 l 393 0 l 157 0 l 157 904 l 413 921 l 401 553 q 610 794 610 560 q 606 864 610 828 l 829 801 q 663 457 807 568 z "},"l":{"ha":410,"x_min":157,"x_max":424,"o":"m 424 936 l 394 -14 l 167 0 l 157 904 l 424 936 z "},"m":{"ha":1349,"x_min":157,"x_max":1364,"o":"m 1357 -17 l 1069 -40 q 1124 376 1069 126 q 1139 535 1139 458 q 1036 729 1139 729 q 914 496 940 729 q 890 -67 890 283 l 611 -31 l 689 375 q 699 513 699 443 q 589 738 699 740 q 383 446 444 735 q 381 379 381 414 q 403 160 381 294 q 426 -11 425 21 l 182 -43 l 157 904 l 357 913 l 361 860 q 574 940 453 940 q 803 842 714 940 q 1021 944 885 944 q 1290 790 1197 944 q 1356 539 1364 669 q 1347 283 1347 421 q 1357 -17 1347 125 z "},"n":{"ha":924,"x_min":157,"x_max":931,"o":"m 931 -47 l 686 -72 l 689 375 q 589 738 692 740 q 424 614 472 735 q 393 438 393 540 q 424 -12 392 299 l 197 -46 l 157 904 l 358 935 l 364 863 q 574 940 454 940 q 842 789 749 940 q 914 540 911 676 q 931 -47 917 419 z "},"o":{"ha":821,"x_min":135,"x_max":847,"o":"m 847 419 q 769 93 847 200 q 450 -31 675 -37 q 178 119 244 -24 q 135 453 135 213 q 246 783 135 644 q 496 918 354 918 q 740 779 639 918 q 847 419 847 635 m 499 694 q 410 643 449 683 q 343 444 344 575 q 369 243 343 301 q 469 182 396 185 q 601 253 549 179 q 646 443 653 328 q 589 628 639 554 q 499 694 544 693 z "},"p":{"ha":814,"x_min":121,"x_max":839,"o":"m 121 911 q 411 950 282 950 q 763 821 650 950 q 826 692 808 767 q 839 565 839 633 q 761 299 839 403 q 400 144 651 150 l 426 -49 l 192 -78 l 121 911 m 326 753 l 375 332 q 631 463 565 339 q 658 585 657 514 q 410 760 617 760 q 326 753 371 760 z "},"q":{"ha":822,"x_min":132,"x_max":1103,"o":"m 1103 -194 l 792 -428 l 581 -378 l 600 92 q 210 244 326 78 q 132 526 132 356 q 138 607 132 572 q 208 754 156 693 q 618 901 335 901 q 842 881 721 901 l 806 -144 q 896 -128 847 -128 q 1103 -194 999 -128 m 632 704 q 581 707 606 707 q 313 514 343 707 q 349 393 318 443 q 613 279 422 274 l 632 704 z "},"r":{"ha":792,"x_min":157,"x_max":869,"o":"m 869 490 l 618 425 q 522 732 589 732 q 429 699 458 732 q 400 589 400 667 q 421 0 400 479 l 167 0 l 157 904 l 367 942 l 375 871 q 511 940 433 918 q 567 949 539 949 q 806 719 711 949 q 869 490 844 624 z "},"s":{"ha":693,"x_min":136,"x_max":857,"o":"m 136 272 l 374 297 q 368 242 368 267 q 449 117 368 125 q 503 142 483 117 q 524 203 524 167 q 490 296 524 251 q 378 372 451 346 q 172 674 172 447 q 175 719 172 697 q 281 893 185 814 q 510 967 385 979 q 857 710 658 953 l 679 533 q 490 758 626 742 q 401 742 435 764 q 368 683 368 721 q 414 596 368 640 q 567 513 467 546 q 675 414 636 488 q 710 254 710 346 q 650 36 710 129 q 482 -67 585 -67 q 325 -28 393 -61 q 136 272 164 56 z "},"t":{"ha":754,"x_min":150,"x_max":796,"o":"m 792 428 q 768 175 796 281 q 482 -78 700 -78 q 224 75 308 -78 q 163 325 165 181 l 150 938 l 424 915 l 403 761 l 776 743 l 754 525 l 378 574 l 367 488 q 360 374 360 432 q 472 154 360 151 q 576 325 576 157 q 564 449 576 385 l 792 428 z "},"u":{"ha":800,"x_min":113,"x_max":853,"o":"m 433 -58 q 113 454 113 -24 q 175 914 113 672 l 429 893 q 338 392 338 576 q 439 200 338 203 q 590 596 590 196 q 572 900 590 733 l 853 893 q 803 401 846 604 q 433 -58 699 -86 z "},"v":{"ha":750,"x_min":165,"x_max":818,"o":"m 818 793 l 504 -6 l 307 -3 l 165 924 l 408 922 q 451 396 421 779 l 597 838 l 818 793 z "},"w":{"ha":1165,"x_min":125,"x_max":1267,"o":"m 1267 917 l 1007 -1 l 799 18 q 660 478 769 110 l 497 18 l 300 13 l 125 935 l 369 942 q 431 417 388 799 l 560 863 l 783 826 l 890 468 l 1008 947 l 1267 917 z "},"x":{"ha":978,"x_min":157,"x_max":1093,"o":"m 157 147 l 364 -24 l 639 311 l 840 -76 l 1075 -22 l 804 461 l 1093 833 l 838 926 l 667 685 l 522 964 l 258 904 l 475 519 l 157 147 z "},"y":{"ha":754,"x_min":131,"x_max":818,"o":"m 775 299 q 689 68 757 169 q 442 -71 594 -71 q 400 -68 421 -71 q 140 301 147 -37 l 353 328 q 351 293 351 310 q 438 161 351 174 q 581 415 564 142 q 389 378 472 378 q 131 713 131 378 q 154 921 131 815 l 379 910 q 340 678 340 779 q 347 608 340 639 q 435 551 360 551 q 582 589 507 551 l 579 899 l 818 919 q 806 681 813 790 q 775 299 790 417 z "},"z":{"ha":806,"x_min":118,"x_max":857,"o":"m 857 588 l 456 196 l 735 178 l 714 -54 l 147 -17 l 118 210 l 668 686 l 158 694 l 154 926 l 843 888 l 857 588 z "},"{":{"ha":792,"x_min":156,"x_max":786,"o":"m 726 661 q 786 524 786 607 q 647 269 786 393 l 649 268 q 633 231 649 246 q 594 215 617 215 q 582 217 588 215 q 471 149 532 181 l 469 149 q 229 338 313 231 q 156 524 156 432 q 215 663 156 608 q 326 704 265 704 q 471 635 401 704 q 615 703 540 703 q 726 661 676 703 m 618 428 q 529 549 613 560 q 461 440 450 538 l 483 260 l 546 272 l 531 350 l 600 357 l 596 407 l 519 397 q 510 453 510 429 q 532 490 510 488 q 561 447 561 494 q 558 419 561 433 l 618 428 m 624 268 q 594 297 624 297 q 565 268 565 297 q 594 239 565 239 q 624 268 624 239 m 418 504 q 329 625 411 635 q 261 517 250 614 l 282 336 l 344 349 l 331 426 l 400 432 l 396 483 l 318 474 q 308 529 308 506 q 332 567 308 564 q 361 524 361 569 q 358 496 361 510 l 418 504 m 439 346 q 410 375 439 375 q 381 346 381 375 q 410 317 381 317 q 439 346 439 317 z "},"|":{"ha":874,"x_min":154,"x_max":872,"o":"m 796 692 q 872 515 872 622 q 729 249 872 365 q 697 195 724 217 q 636 174 671 174 q 522 107 593 143 l 501 107 q 240 311 333 194 q 154 526 154 421 q 229 693 154 625 q 368 747 292 747 q 513 690 443 747 q 656 746 582 746 q 796 692 733 746 m 768 661 q 657 703 718 703 q 513 635 582 703 q 368 704 443 704 q 257 663 307 704 q 197 524 197 608 q 271 338 197 432 q 511 149 354 231 l 513 149 q 624 217 574 181 q 636 215 629 215 q 674 231 658 215 q 690 268 690 246 l 689 269 q 828 524 828 393 q 768 661 828 607 m 660 428 l 600 419 q 603 447 603 433 q 574 490 603 494 q 551 453 551 488 q 561 397 551 429 l 638 407 l 642 357 l 572 350 l 588 272 l 525 260 l 503 440 q 571 549 492 538 q 660 428 654 560 m 665 268 q 636 239 665 239 q 607 268 607 239 q 636 297 607 297 q 665 268 665 297 m 460 504 l 400 496 q 403 524 403 510 q 374 567 403 569 q 350 529 350 564 q 360 474 350 506 l 438 483 l 442 432 l 372 426 l 386 349 l 324 336 l 303 517 q 371 625 292 614 q 460 504 453 635 m 481 346 q 451 317 481 317 q 422 346 422 317 q 451 375 422 375 q 481 346 481 375 z "},"}":{"ha":792,"x_min":156,"x_max":786,"o":"m 726 661 q 786 524 786 607 q 647 269 786 393 l 649 268 q 633 231 649 246 q 594 215 617 215 q 582 217 588 215 q 471 149 532 181 l 469 149 q 229 338 313 231 q 156 524 156 432 q 215 663 156 608 q 326 704 265 704 q 471 635 401 704 q 615 703 540 703 q 726 661 676 703 m 618 428 q 529 549 613 560 q 461 440 450 538 l 483 260 l 546 272 l 531 350 l 600 357 l 596 407 l 519 397 q 510 453 510 429 q 532 490 510 488 q 561 447 561 494 q 558 419 561 433 l 618 428 m 624 268 q 594 297 624 297 q 565 268 565 297 q 594 239 565 239 q 624 268 624 239 m 418 504 q 329 625 411 635 q 261 517 250 614 l 282 336 l 344 349 l 331 426 l 400 432 l 396 483 l 318 474 q 308 529 308 506 q 332 567 308 564 q 361 524 361 569 q 358 496 361 510 l 418 504 m 439 346 q 410 375 439 375 q 381 346 381 375 q 410 317 381 317 q 439 346 439 317 z "},"~":{"ha":874,"x_min":154,"x_max":872,"o":"m 796 692 q 872 515 872 622 q 729 249 872 365 q 697 195 724 217 q 636 174 671 174 q 522 107 593 143 l 501 107 q 240 311 333 194 q 154 526 154 421 q 229 693 154 625 q 368 747 292 747 q 513 690 443 747 q 656 746 582 746 q 796 692 733 746 m 768 661 q 657 703 718 703 q 513 635 582 703 q 368 704 443 704 q 257 663 307 704 q 197 524 197 608 q 271 338 197 432 q 511 149 354 231 l 513 149 q 624 217 574 181 q 636 215 629 215 q 674 231 658 215 q 690 268 690 246 l 689 269 q 828 524 828 393 q 768 661 828 607 m 660 428 l 600 419 q 603 447 603 433 q 574 490 603 494 q 551 453 551 488 q 561 397 551 429 l 638 407 l 642 357 l 572 350 l 588 272 l 525 260 l 503 440 q 571 549 492 538 q 660 428 654 560 m 665 268 q 636 239 665 239 q 607 268 607 239 q 636 297 607 297 q 665 268 665 297 m 460 504 l 400 496 q 403 524 403 510 q 374 567 403 569 q 350 529 350 564 q 360 474 350 506 l 438 483 l 442 432 l 372 426 l 386 349 l 324 336 l 303 517 q 371 625 292 614 q 460 504 453 635 m 481 346 q 451 317 481 317 q 422 346 422 317 q 451 375 422 375 q 481 346 481 375 z "}}}
